<svg xmlns="http://www.w3.org/2000/svg" viewBox="0 0 1618.9 224.93"><defs><style>.a{fill:#ffcb00;}.b{fill:#fff;}.c{isolation:isolate;}</style></defs><path class="a" d="M129.2,209.26c.23-3.87,1.79-8.48,1.72-13.68-.13-10.7-1.9-20.28.13-28-6.41,10.38-4.57,26-1.85,41.66m30.71-3c-.31-2.41.14-5.45-.5-8.66-1.31-6.6-3.53-12.31-3.13-17.32-2.78,7.23.15,16.64,3.63,26m-9.74,17.24c-.59-3.86.24-8.75-1-13.9-2.49-10.58-6.65-19.77-5.92-27.81-5.25,11.58.3,26.72,6.88,41.71M163,147.14c-.1,3.93,1.31,8.65.75,13.92-1.16,10.84-4.17,20.47-2.47,28.38-6.63-10.79-3-26.55,1.72-42.3m-16-26.76c-.66,6.92,1.3,15.45-.31,24.68-3.31,19-9.77,35.68-7.69,49.82-10.42-19.91-2.14-47.25,8-74.5m-9.62,10c.14,13.29-4.62,17-8.66,29.26-1,3-2.25,4.71-2.74,13.95-3.66-6.68-.31-17.79,2.08-24.13,3.08-8.13,8.15-16.6,9.32-19.08m19.19-9.91c5.3,22.87-1.46,31.35-3.77,54.16-.56,5.53-2.07,9,.6,25.14-8.9-10-7.34-30.54-5.63-42.5,2.19-15.27,7.72-32,8.8-36.8M111,38.25c7.58,5.26,13.68,16.37,23.34,16.22,11.62,0,14.92-5.76,14.92-19.2,0-3-8.6-8.38-4.18-7.9,3.91.91,7.47-5.33,12-5.05,8,.48,7.53,5.61,13.82,7.3,4.58,2.18,7.68,3.89,10.23,6.66-5.25,1.52-11.24,0-13.56,2a6.44,6.44,0,0,0-2.11,5.06c.09,7.68,5.85,11.28,13.16,11.28s13.72-2.68,18-9.3c5.61-8.62,15.68-14.34,27.58-15.65,14.92-1.65,37.27-5.28,47.86-9.73,10-4.22,33.35-16.52,40.27-18.45C312.37,47.89,222,39,221.91,46c7.12.22,14.06,1.11,21.4,1.41a106.24,106.24,0,0,0,31.88-3.8c8.51-2.22,16.68-4.92,24-6.7-3.32,13-19.88,21.82-32.53,25.71-13.9,4.27-40.68-4-51.75-4,0,4.36,21.3,8.64,24.77,8.85,10.2.62,20.44.82,31.68.82-1.93,5.53-16.06,10.46-24,10.46-23.37.85-27.75-7.74-41-8,4.63,7.21,27.47,12.08,40.22,12.08,0,4.87-21.2,9.25-29.4,8.06-7.18,0-25.76-14-30.38-9.92l28.08,14c-15.1,6.2-29.47-8.53-42.55-9.66-14.48,12.29-3.34,40.87-10.85,56.7-.32.7.73-15.42-4.62-28.81-.42-1.07-3.25,5.53-4.41,8.92-2.58,7.59.12,15.84-2.25,6-1.35-5.56-1.91-12.17-.26-17.54,4.31-13.89-9.22,20.53-9.55,19.35-1.34-4.88-.53-17.14.76-22,2.07-7.79-.77-13.86-2-21.44-5.17-1.13-26.91,11.41-42.48,8.72L125.5,81c-2.31-5.09-23.93,9.19-31.17,9.85-10.89,1-25.69-.53-28.61-8.06,13.9,0,34.94-3.87,40.21-12.08-12.27,2.19-25.71,8.86-40.21,8.86C59,79.56,42.63,73,41,68.29c16.79,0,49.67.47,55.55-9.54-9.31,1.79-21,4.53-31.58,5.52-21.68,2-48.13-13-51.82-27.39,5.53.47,15.07,3.47,24.46,6.09a126.75,126.75,0,0,0,40.83,4.46A42.32,42.32,0,0,0,89.7,45.75c0-6-89.7,1.39-89.7-44.29C9.52,4.1,26,15,39.83,19.58c11.45,3.79,23.87,4.72,37.59,7.51,11.17,2.26,24,4.56,33.56,11.16"></path><path class="b" d="M403.38,94.16a22.74,22.74,0,0,1-7.41,17.1,24.74,24.74,0,0,1-17.7,7H347.46v26.34H329.63V69.12h49.63q11.6,0,18.33,8.33a26,26,0,0,1,5.79,16.71m-20.19-1a10.18,10.18,0,0,0-3.84-8.09,13.17,13.17,0,0,0-8.8-3.23H347.46v23.4h23.62a11.85,11.85,0,0,0,8.59-3.45,11.63,11.63,0,0,0,3.52-8.63M462,107.86v36.79H447.42V110.72c0-1,0-2.22-.11-3.57a5.44,5.44,0,0,0-1.67-3.69,7.15,7.15,0,0,0-3.14-2.12,13.71,13.71,0,0,0-4-.5H426.17v43.81h-14.5V69.12h14.5V88.77H444a25.9,25.9,0,0,1,7.15.8,16.68,16.68,0,0,1,9.71,9.77,27.82,27.82,0,0,1,1.13,8.52m70.53,8.64q0,14.56-8.91,22.32-8.17,7.13-22.26,7.12t-21.87-6.46q-9-7.46-9-23.21,0-13.15,9.74-20.71,8.7-6.8,21.44-6.79c9.34,0,16.8,2.42,22.43,7.29s8.43,11.65,8.43,20.44m-16-.13A16.54,16.54,0,0,0,512.42,105c-2.73-3.06-6.44-4.57-11.14-4.57a13.59,13.59,0,0,0-10.61,4.69,17.05,17.05,0,0,0-4.19,11.81c0,5.48,1.4,9.82,4.24,13a13.85,13.85,0,0,0,11,4.87c5.1,0,8.91-1.69,11.39-5.06,2.28-3.11,3.42-7.56,3.42-13.4M586.85,145H561.57q-9.23,0-16-8.26a29,29,0,0,1-6.8-19,30,30,0,0,1,7.42-20.34q7.41-8.57,16.52-8.57h24v11.55h-17.6a22.77,22.77,0,0,0-5.66.59,10.1,10.1,0,0,0-4.28,2.31,11,11,0,0,0-3.64,8.74h31.08v11.65H555.56a14.23,14.23,0,0,0,.59,4.38,9.26,9.26,0,0,0,2.33,3.56,8.68,8.68,0,0,0,4.2,2.36,25.09,25.09,0,0,0,6,.6h18.18Zm60.2-.32H632.64V107.86a5.06,5.06,0,0,0-.62-2.54,10.13,10.13,0,0,0-1.76-2.22,7.07,7.07,0,0,0-4.78-1.81H611.39v43.36H597V88.77h27.55a46.83,46.83,0,0,1,10.68.86,14,14,0,0,1,8.28,5.72,19.74,19.74,0,0,1,3.53,11.33ZM671.91,82.4H657.6V69.12h14.31Zm0,62.25H657.6V88.77h14.31Zm63.17-55.88L714.47,117l20,27.83H715.93L705.55,130l-10.85,14.9H676.58l20.29-27.39-20.53-28.7H694.5l11.16,16.07,11-16.07Zm118.1,5.39a22.72,22.72,0,0,1-7.43,17.1,24.7,24.7,0,0,1-17.69,7H797.24v26.34H779.43V69.12h49.63c7.73,0,13.82,2.78,18.33,8.33a25.91,25.91,0,0,1,5.79,16.71m-20.2-1a10.17,10.17,0,0,0-3.83-8.09,13.17,13.17,0,0,0-8.8-3.23H797.24v23.4h23.61a11.81,11.81,0,0,0,8.61-3.45A11.6,11.6,0,0,0,833,93.19m88.47,23.31q0,14.56-8.92,22.32c-5.43,4.75-12.87,7.12-22.26,7.12s-16.69-2.15-21.86-6.46q-9-7.46-9-23.21,0-13.15,9.73-20.71,8.75-6.8,21.46-6.79,14,0,22.44,7.29t8.43,20.44m-16.06-.13A16.49,16.49,0,0,0,901.3,105c-2.72-3.06-6.44-4.57-11.14-4.57a13.62,13.62,0,0,0-10.61,4.69,17.11,17.11,0,0,0-4.2,11.81q0,8.22,4.25,13a13.87,13.87,0,0,0,11,4.87c5.1,0,8.92-1.69,11.39-5.06,2.28-3.11,3.42-7.56,3.42-13.4m38.85,28.28h-14.5V69.12h14.5Zm62.79.09H968.27a15.09,15.09,0,0,1-11.11-4.57,15.54,15.54,0,0,1-4.63-11.59,17.79,17.79,0,0,1,4.18-12.13,13.26,13.26,0,0,1,10.49-4.81h25v-3a6,6,0,0,0-.48-2.42,13.5,13.5,0,0,0-1.49-2.42,6.57,6.57,0,0,0-3-2.22,15.08,15.08,0,0,0-4.35-.48H956.15V88.77h27.46q7.57,0,11.27,1.34a17,17,0,0,1,6.44,4,17.81,17.81,0,0,1,4.56,7.77,42.16,42.16,0,0,1,1.15,10.78Zm-14.82-11.43v-11H974a6.55,6.55,0,0,0-4.41,1.56,5.24,5.24,0,0,0-1.81,4.16,4.76,4.76,0,0,0,1.77,3.78,6,6,0,0,0,4,1.5Zm75.21,11.34H1053V107.86a5.64,5.64,0,0,0-.62-2.54,10.32,10.32,0,0,0-1.79-2.22,7,7,0,0,0-4.74-1.81h-14.11v43.36h-14.39V88.77h27.56a46.61,46.61,0,0,1,10.67.86,14,14,0,0,1,8.29,5.72,19.81,19.81,0,0,1,3.52,11.33Zm64.21,0H1098q-9.72,0-16.17-9.05a33.8,33.8,0,0,1-5.9-19.76,29,29,0,0,1,6.64-19q6.63-8.08,16.57-8.09h18.54V69.12h14Zm-14.4-12.19V100.63h-13.35a11.23,11.23,0,0,0-9.23,4.64,17.39,17.39,0,0,0-3.62,11,19.76,19.76,0,0,0,3.31,11.28,10.25,10.25,0,0,0,8.91,4.91Z"></path><path class="b" d="M336.14,174.48l6.64,20,6.64-20h8v26.05h-5.37l.43-20.28-6.67,20.28H340L333.13,180l.54,20.5h-5.59V174.48Z"></path><path class="b" d="M373,181.41a15.93,15.93,0,0,1,3.21.38,5.68,5.68,0,0,1,2.78,1.58,5.41,5.41,0,0,1,1.46,2.39,9.4,9.4,0,0,1,.43,2.84v11.93H367.34a6,6,0,0,1-4.5-1.61,5.73,5.73,0,0,1-1.41-4.48q.26-3.45,2.43-4.47a12.29,12.29,0,0,1,5.19-1l6.64,0c.07-1.57-.33-2.55-1.22-2.94a8.32,8.32,0,0,0-3.35-.58l-8.42,0v-4Zm-3.63,15.28h6.31v-4h-6a.25.25,0,0,1-.14,0h-.14a5.48,5.48,0,0,0-1.89.38,1.6,1.6,0,0,0-.91,1.61c-.05,1,.21,1.51.78,1.67a7.54,7.54,0,0,0,1.94.29Z"></path><path class="b" d="M393.83,181.41c2.73,0,4.32.65,4.75,1.89a14.79,14.79,0,0,1,.62,5v1.2l-4.83,0v-.8c0-1.77-.14-2.79-.41-3.09s-1.29-.43-3-.43h-.55v15.42h-5V181.41Z"></path><path class="b" d="M402.39,179.23v-4.75h5.3v4.75Zm0,21.3V181.41h5.3v19.12Z"></path><path class="b" d="M421.55,181.41a10.37,10.37,0,0,1,5.88,1.49c1.4,1,2.11,2.82,2.11,5.55v12.08h-5.05V189a4.08,4.08,0,0,0-.65-2.69,3.84,3.84,0,0,0-2.69-.68l-4.06,0v14.91h-5V181.41Z"></path><path class="b" d="M438.41,200a6.84,6.84,0,0,1-3.36-2,7.78,7.78,0,0,1-1.69-2.9,13.59,13.59,0,0,1-.63-3.34v-1.21a4.15,4.15,0,0,1,0-.49,12.7,12.7,0,0,1,.64-3.21,7.72,7.72,0,0,1,1.65-2.82,6.76,6.76,0,0,1,3.36-2.08,15.56,15.56,0,0,1,3.93-.49l7.37,0v4H443a8.39,8.39,0,0,0-3.38.64c-.85.4-1.3,1.39-1.34,3l11.39,0v4H438.32c0,1.66.47,2.68,1.27,3a8.29,8.29,0,0,0,3.4.55l6.72,0v4h-7.37A15.56,15.56,0,0,1,438.41,200Z"></path><path class="b" d="M473.73,180.63a7,7,0,0,0-1.67,4.48l15.17,0v4.54H472a11.51,11.51,0,0,0,.3,2.65,5.33,5.33,0,0,0,1.25,2.32,3.55,3.55,0,0,0,2,1.22,11.39,11.39,0,0,0,2.34.23h.33l9,0v4.53H478a22,22,0,0,1-4.26-.4,8.74,8.74,0,0,1-3.86-1.85A9.37,9.37,0,0,1,466.8,194a17.81,17.81,0,0,1-.95-5.25c0-.38,0-.76,0-1.12s0-.73.05-1.09q.41-6.17,3.36-9.07c2-1.94,4.93-2.9,8.87-2.9l9.11,0V179h-9A6,6,0,0,0,473.73,180.63Z"></path><path class="b" d="M501,181.41a10.36,10.36,0,0,1,5.87,1.49q2.12,1.46,2.11,5.55v12.08H504V189a4,4,0,0,0-.65-2.69,3.81,3.81,0,0,0-2.68-.68l-4.07,0v14.91h-5V181.41Z"></path><path class="b" d="M529.54,205.51q-1.68,1.92-5.56,1.92h-9.9v-3.89h9a3.3,3.3,0,0,0,2.3-.78,2.77,2.77,0,0,0,.71-2.23H522a26.68,26.68,0,0,1-3.85-.25,6,6,0,0,1-3.34-1.82,8.18,8.18,0,0,1-1.94-2.9,12.1,12.1,0,0,1-.85-3.41c0-.19,0-.38,0-.56s0-.36,0-.53,0-.43,0-.65,0-.44.05-.66a12.26,12.26,0,0,1,.85-3.26,8.41,8.41,0,0,1,1.91-2.79,7,7,0,0,1,3.34-1.84,17.89,17.89,0,0,1,3.85-.41l9.17,0v18.43A8.47,8.47,0,0,1,529.54,205.51Zm-6-8.93h2.62V185.51a4.86,4.86,0,0,1-.66,0,4.72,4.72,0,0,1-.65,0h-1a13.17,13.17,0,0,0-4.37.65c-1.34.47-2.07,1.76-2.19,3.89,0,.14,0,.29,0,.43s0,.29,0,.44a8.78,8.78,0,0,0,.34,2.7,4.11,4.11,0,0,0,1.62,2.2,3.47,3.47,0,0,0,1.44.61,11.81,11.81,0,0,0,1.57.19h1.27Z"></path><path class="b" d="M535.41,179.23v-4.75h5.3v4.75Zm0,21.3V181.41h5.3v19.12Z"></path><path class="b" d="M554.57,181.41a10.39,10.39,0,0,1,5.88,1.49c1.4,1,2.11,2.82,2.11,5.55v12.08h-5V189a4.08,4.08,0,0,0-.65-2.69,3.84,3.84,0,0,0-2.69-.68l-4.06,0v14.91h-5V181.41Z"></path><path class="b" d="M571.43,200a6.84,6.84,0,0,1-3.36-2,7.64,7.64,0,0,1-1.69-2.9,13.59,13.59,0,0,1-.63-3.34v-1.21a4.15,4.15,0,0,1,0-.49,13.15,13.15,0,0,1,.64-3.21,7.72,7.72,0,0,1,1.65-2.82,6.76,6.76,0,0,1,3.36-2.08,15.56,15.56,0,0,1,3.93-.49l7.37,0v4h-6.68a8.38,8.38,0,0,0-3.37.64c-.85.4-1.3,1.39-1.34,3l11.39,0v4H571.34c0,1.66.47,2.68,1.27,3a8.31,8.31,0,0,0,3.41.55l6.71,0v4h-7.37A15.56,15.56,0,0,1,571.43,200Z"></path><path class="b" d="M609,179.12a6.17,6.17,0,0,0-3,.75,2.85,2.85,0,0,0-1.22,2.7,2.36,2.36,0,0,0,1,2.18,4.42,4.42,0,0,0,2.4.65l7.26,0a7.63,7.63,0,0,0,.84,0,8.44,8.44,0,0,1,.87,0,12.43,12.43,0,0,1,2.5.41,5.16,5.16,0,0,1,2.18,1.26,4.89,4.89,0,0,1,1.3,1.92,8.1,8.1,0,0,1,.55,2.32l.06.71c0,.23,0,.47,0,.71q-.07,4.53-2.5,6.15a11.78,11.78,0,0,1-6.61,1.61H600.11v-4.64h13.71a7.08,7.08,0,0,0,3.14-.58c.89-.41,1.24-1.35,1.07-2.8-.11-1.13-.54-1.84-1.27-2.1a8.05,8.05,0,0,0-2.57-.44l-6.46,0a10.73,10.73,0,0,1-6.37-1.62q-2.34-1.65-2.3-6,.08-4.53,2.52-6.18a11.69,11.69,0,0,1,6.62-1.65l14.33,0v4.64Z"></path><path class="b" d="M638.13,181.41a16,16,0,0,1,3.22.38,5.65,5.65,0,0,1,2.77,1.58,5.52,5.52,0,0,1,1.47,2.39,9.72,9.72,0,0,1,.42,2.84v11.93H632.44a6,6,0,0,1-4.5-1.61,5.77,5.77,0,0,1-1.42-4.48c.17-2.3,1-3.79,2.44-4.47a12.27,12.27,0,0,1,5.18-1l6.64,0c.08-1.57-.33-2.55-1.21-2.94a8.34,8.34,0,0,0-3.36-.58l-8.42,0v-4Zm-3.62,15.28h6.31v-4h-6a.28.28,0,0,1-.15,0h-.14a5.53,5.53,0,0,0-1.89.38,1.58,1.58,0,0,0-.9,1.61c0,1,.21,1.51.77,1.67a7.55,7.55,0,0,0,2,.29Z"></path><path class="b" d="M650.36,200.53V174.48h5.27v26.05Z"></path><path class="b" d="M664.53,200a6.77,6.77,0,0,1-3.35-2,7.64,7.64,0,0,1-1.69-2.9,13.61,13.61,0,0,1-.64-3.34v-1.21a4.22,4.22,0,0,1,0-.49,12.7,12.7,0,0,1,.64-3.21,7.58,7.58,0,0,1,1.65-2.82,6.69,6.69,0,0,1,3.35-2.08,15.58,15.58,0,0,1,3.94-.49l7.37,0v4h-6.68a8.38,8.38,0,0,0-3.37.64c-.85.4-1.3,1.39-1.35,3l11.4,0v4h-11.4c0,1.66.47,2.68,1.27,3a8.37,8.37,0,0,0,3.41.55l6.72,0v4h-7.37A15.58,15.58,0,0,1,664.53,200Z"></path><path class="b" d="M689.4,196.54a.28.28,0,0,0,.15,0h.15a4.45,4.45,0,0,0,1.67-.4,1.49,1.49,0,0,0,.75-1.49,1.42,1.42,0,0,0-.72-1.41,4.13,4.13,0,0,0-1.56-.44h-.44l-4.35,0a10.78,10.78,0,0,1-4.81-.84c-1.17-.58-1.77-2.05-1.79-4.43,0-2.22.58-3.8,1.81-4.72a8.13,8.13,0,0,1,4.94-1.37l10.85,0v4h-8.93a.54.54,0,0,1-.2,0H685.7a3.51,3.51,0,0,0-1.24.29,1.33,1.33,0,0,0-.79.94q-.28,1.28.51,1.74a3.51,3.51,0,0,0,1.85.47l4.57,0a8.08,8.08,0,0,1,4.5,1.25,4.89,4.89,0,0,1,1.92,4.19v.11a6.86,6.86,0,0,1-1.32,4.23,4.49,4.49,0,0,1-3.9,1.9h-13v-4Z"></path><path class="b" d="M701.89,200.53h-2V196h4.36v1.37c0,1,0,1.82,0,2.54a4.85,4.85,0,0,1-.65,2.11,5.35,5.35,0,0,1-.65.92,10,10,0,0,1-1,1Z"></path><path class="b" d="M730.84,179.12a6.2,6.2,0,0,0-3,.75,2.85,2.85,0,0,0-1.22,2.7,2.38,2.38,0,0,0,1,2.18,4.46,4.46,0,0,0,2.41.65l7.26,0a7.33,7.33,0,0,0,.83,0,8.77,8.77,0,0,1,.88,0,12.45,12.45,0,0,1,2.49.41,5.11,5.11,0,0,1,2.18,1.26A4.91,4.91,0,0,1,745,189a8.82,8.82,0,0,1,.55,2.32c0,.24,0,.48,0,.71s0,.47,0,.71q-.07,4.53-2.51,6.15a11.76,11.76,0,0,1-6.6,1.61H722v-4.64h13.72a7.14,7.14,0,0,0,3.14-.58c.88-.41,1.24-1.35,1.07-2.8-.13-1.13-.55-1.84-1.27-2.1A8.12,8.12,0,0,0,736,190l-6.46,0a10.75,10.75,0,0,1-6.37-1.62q-2.33-1.65-2.3-6,.08-4.53,2.52-6.18a11.71,11.71,0,0,1,6.62-1.65l14.34,0v4.64Z"></path><path class="b" d="M753.83,200a6.84,6.84,0,0,1-3.36-2,7.91,7.91,0,0,1-1.69-2.9,13.59,13.59,0,0,1-.63-3.34v-1.21a2.77,2.77,0,0,1,0-.49,12.68,12.68,0,0,1,.63-3.21,7.72,7.72,0,0,1,1.65-2.82,6.76,6.76,0,0,1,3.36-2.08,15.56,15.56,0,0,1,3.93-.49l7.37,0v4h-6.67a8.43,8.43,0,0,0-3.38.64c-.84.4-1.29,1.39-1.34,3l11.39,0v4H753.74c0,1.66.47,2.68,1.27,3a8.34,8.34,0,0,0,3.41.55l6.71,0v4h-7.37A15.56,15.56,0,0,1,753.83,200Z"></path><path class="b" d="M776.86,181.41c2.72,0,4.31.65,4.74,1.89a14.54,14.54,0,0,1,.62,5v1.2l-4.82,0v-.8c0-1.77-.14-2.79-.42-3.09s-1.29-.43-3-.43h-.54v15.42h-5V181.41Z"></path><path class="b" d="M788.94,181.41,794.23,195l5.62-13.57h5.45l-8.49,19.12h-5.44l-8.1-19.12Z"></path><path class="b" d="M807.55,179.23v-4.75h5.3v4.75Zm0,21.3V181.41h5.3v19.12Z"></path><path class="b" d="M827.61,196.43H833v4.1h-6.85a18,18,0,0,1-3.83-.41,7,7,0,0,1-3.36-1.84,8.46,8.46,0,0,1-1.92-2.81,11.47,11.47,0,0,1-.87-3.32c0-.17,0-.34,0-.52s0-.36,0-.53,0-.44,0-.66,0-.43,0-.65a10.53,10.53,0,0,1,.84-3.26,8.63,8.63,0,0,1,1.92-2.8,7.19,7.19,0,0,1,3.36-1.85,16.85,16.85,0,0,1,3.83-.43l6.85,0v4.13h-5.37a.59.59,0,0,1-.23,0h-1a9.36,9.36,0,0,0-1.41.11,3.68,3.68,0,0,0-1.31.47,4,4,0,0,0-1.79,2.14,8,8,0,0,0,0,5.5,3.9,3.9,0,0,0,1.74,2,3.68,3.68,0,0,0,1.31.47,10.86,10.86,0,0,0,1.41.15h1.27Z"></path><path class="b" d="M840.91,200a6.77,6.77,0,0,1-3.35-2,7.64,7.64,0,0,1-1.69-2.9,14.09,14.09,0,0,1-.64-3.34v-1.21a4.22,4.22,0,0,1,0-.49,12.28,12.28,0,0,1,.64-3.21,7.58,7.58,0,0,1,1.65-2.82,6.69,6.69,0,0,1,3.35-2.08,15.58,15.58,0,0,1,3.94-.49l7.36,0v4h-6.67a8.38,8.38,0,0,0-3.37.64c-.85.4-1.3,1.39-1.35,3l11.39,0v4H840.82c0,1.66.47,2.68,1.27,3a8.37,8.37,0,0,0,3.41.55l6.71,0v4h-7.36A15.58,15.58,0,0,1,840.91,200Z"></path><path class="b" d="M890.41,194.78a10.43,10.43,0,0,1-6.7,5.59,17.26,17.26,0,0,1-3.78.63,19.4,19.4,0,0,1-2.42-.07,17.42,17.42,0,0,1-2.33-.36,8.18,8.18,0,0,1-3.74-1.87,6.2,6.2,0,0,1-2-3.65,6.3,6.3,0,0,1,.58-4.21,10.17,10.17,0,0,1,2.87-3,18.13,18.13,0,0,1-1.67-1.43,5.66,5.66,0,0,1-1.23-1.83,7.19,7.19,0,0,1-.49-1.53,8,8,0,0,1-.17-1.63,3.21,3.21,0,0,1,0-.62c0-.21.05-.43.08-.65a5.75,5.75,0,0,1,2.74-4.33,9.82,9.82,0,0,1,5.06-1.29l8.78,0v4.83h-7.4a5,5,0,0,0-2.94.94,2.53,2.53,0,0,0-.87,2.83A2.36,2.36,0,0,0,876.2,185a7.12,7.12,0,0,0,2.43.4h1.12v4.43a.13.13,0,0,1-.07,0h-.32a12.35,12.35,0,0,0-2.72.28c-.85.2-1.4.91-1.64,2.14a3.23,3.23,0,0,0,.47,2.44,3.48,3.48,0,0,0,2,1.49,5.86,5.86,0,0,0,1.06.18l1.11,0a7.8,7.8,0,0,0,2.36-.51,5.86,5.86,0,0,0,2-1.27,6.21,6.21,0,0,0,1.49-2.06,21.69,21.69,0,0,0,.87-2.36c0-.08,0-.14.06-.2a.3.3,0,0,1,.05-.16l-3.67,0v-4.47h12.63v4.47H892.2A25.87,25.87,0,0,1,890.41,194.78Z"></path><path class="b" d="M921.74,179.12a6.21,6.21,0,0,0-3,.75,2.85,2.85,0,0,0-1.21,2.7,2.4,2.4,0,0,0,1,2.18,4.47,4.47,0,0,0,2.42.65l7.25,0a7.63,7.63,0,0,0,.84,0,8.57,8.57,0,0,1,.87,0,12.54,12.54,0,0,1,2.5.41,5.45,5.45,0,0,1,3.49,3.18,8.43,8.43,0,0,1,.54,2.32c0,.24,0,.48,0,.71s0,.47,0,.71q-.07,4.53-2.5,6.15a11.8,11.8,0,0,1-6.61,1.61H912.85v-4.64h13.71a7.11,7.11,0,0,0,3.14-.58c.88-.41,1.24-1.35,1.07-2.8-.12-1.13-.54-1.84-1.27-2.1a8.05,8.05,0,0,0-2.57-.44l-6.46,0a10.75,10.75,0,0,1-6.37-1.62q-2.34-1.65-2.31-6,.08-4.53,2.53-6.18a11.69,11.69,0,0,1,6.62-1.65l14.33,0v4.64Z"></path><path class="b" d="M949.9,181.41a9.11,9.11,0,0,1,6.69,2.47,9.61,9.61,0,0,1,2.59,6.64,12.24,12.24,0,0,1-.36,3.77,8.55,8.55,0,0,1-1.67,3.34,6.28,6.28,0,0,1-3.41,2.4,17,17,0,0,1-4.17.5h-4.36v6.9h-5v-26Zm-4.69,4.13v10.89a4.22,4.22,0,0,0,.49,0h.49a17.3,17.3,0,0,0,5.66-.71q2.17-.73,2.07-5.28-.1-3.81-2.18-4.39a18.08,18.08,0,0,0-5-.55,6.74,6.74,0,0,1-.77,0h-.79Z"></path><path class="b" d="M973,181.41a16,16,0,0,1,3.22.38,5.65,5.65,0,0,1,2.77,1.58,5.52,5.52,0,0,1,1.47,2.39,9.72,9.72,0,0,1,.42,2.84v11.93H967.35a6,6,0,0,1-4.5-1.61,5.69,5.69,0,0,1-1.42-4.48q.26-3.45,2.44-4.47a12.24,12.24,0,0,1,5.18-1l6.64,0c.07-1.57-.33-2.55-1.21-2.94a8.37,8.37,0,0,0-3.36-.58l-8.42,0v-4Zm-3.62,15.28h6.31v-4h-6a.28.28,0,0,1-.15,0h-.14a5.53,5.53,0,0,0-1.89.38,1.6,1.6,0,0,0-.91,1.61c-.05,1,.21,1.51.78,1.67a7.55,7.55,0,0,0,1.95.29Z"></path><path class="b" d="M993.83,181.41c2.74,0,4.32.65,4.76,1.89a15.05,15.05,0,0,1,.62,5v1.2l-4.83,0v-.8c0-1.77-.14-2.79-.42-3.09s-1.29-.43-3-.43h-.54v15.42h-5V181.41Z"></path><path class="b" d="M1007,200a6.84,6.84,0,0,1-3.36-2,7.64,7.64,0,0,1-1.69-2.9,13.59,13.59,0,0,1-.63-3.34v-1.21a2.77,2.77,0,0,1,0-.49,12.68,12.68,0,0,1,.63-3.21,7.72,7.72,0,0,1,1.65-2.82,6.76,6.76,0,0,1,3.36-2.08,15.56,15.56,0,0,1,3.93-.49l7.37,0v4h-6.68a8.38,8.38,0,0,0-3.37.64c-.85.4-1.3,1.39-1.34,3l11.39,0v4H1006.9c0,1.66.47,2.68,1.27,3a8.31,8.31,0,0,0,3.41.55l6.71,0v4h-7.37A15.56,15.56,0,0,1,1007,200Z"></path><path class="b" d="M1048,174.48a.18.18,0,0,0,.09,0h1.47a12.75,12.75,0,0,1,1.38.07,15.69,15.69,0,0,1,2.45.34,7.84,7.84,0,0,1,2.27.89,6.37,6.37,0,0,1,2.74,3.09,11.21,11.21,0,0,1,.85,4.1,9.9,9.9,0,0,1-.67,3.77,6.68,6.68,0,0,1-2.34,3,7.55,7.55,0,0,1-3,1.29,23.51,23.51,0,0,1-3.28.38h-1.74l-6.64,0v9.11h-5.48V174.48Zm-.07,4.64h-6.35v7.69h6.68a7.19,7.19,0,0,0,3.44-.77,3.11,3.11,0,0,0,1.45-3c.05-1.67-.46-2.73-1.54-3.18a9.44,9.44,0,0,0-3.68-.67Z"></path><path class="b" d="M1073.23,181.41a16,16,0,0,1,3.21.38,5.68,5.68,0,0,1,2.78,1.58,5.5,5.5,0,0,1,1.46,2.39,9.72,9.72,0,0,1,.42,2.84v11.93h-13.57a6,6,0,0,1-4.5-1.61,5.73,5.73,0,0,1-1.41-4.48c.16-2.3,1-3.79,2.43-4.47a12.29,12.29,0,0,1,5.19-1l6.64,0c.07-1.57-.34-2.55-1.22-2.94a8.34,8.34,0,0,0-3.36-.58l-8.41,0v-4Zm-3.63,15.28h6.31v-4h-6a.28.28,0,0,1-.15,0h-.14a5.43,5.43,0,0,0-1.88.38,1.57,1.57,0,0,0-.91,1.61c-.05,1,.21,1.51.77,1.67a7.55,7.55,0,0,0,1.95.29Z"></path><path class="b" d="M1094,181.41q4.1,0,4.75,1.89a15.05,15.05,0,0,1,.62,5v1.2l-4.83,0v-.8c0-1.77-.14-2.79-.42-3.09s-1.28-.43-3-.43h-.55v15.42h-5V181.41Z"></path><path class="b" d="M1104.25,181.41v-6.93h5v6.93h5.34v3.81h-5.34V193c0,1.91.41,3,1.31,3.34a11.68,11.68,0,0,0,3.7.47h.33v3.77H1110a5.57,5.57,0,0,1-4.32-1.59,6.24,6.24,0,0,1-1.45-4.36v-9.36h-3.56v-3.81Z"></path><path class="b" d="M1127.94,196.54a.28.28,0,0,0,.15,0h.14a4.41,4.41,0,0,0,1.67-.4,1.48,1.48,0,0,0,.76-1.49,1.42,1.42,0,0,0-.72-1.41,4.23,4.23,0,0,0-1.56-.44h-.44l-4.35,0a10.76,10.76,0,0,1-4.81-.84c-1.17-.58-1.77-2.05-1.8-4.43,0-2.22.58-3.8,1.82-4.72a8.12,8.12,0,0,1,4.93-1.37l10.85,0v4h-8.93a.46.46,0,0,1-.19,0h-1.22a3.57,3.57,0,0,0-1.25.29,1.32,1.32,0,0,0-.78.94c-.2.85,0,1.43.5,1.74a3.57,3.57,0,0,0,1.86.47l4.57,0a8.08,8.08,0,0,1,4.5,1.25,4.89,4.89,0,0,1,1.92,4.19v.11a6.87,6.87,0,0,1-1.33,4.23,4.48,4.48,0,0,1-3.9,1.9h-13v-4Z"></path><g class="c"><g class="c"><path class="b" d="M1513.64,167.09a2.74,2.74,0,0,1-2.81-1.91,1.93,1.93,0,0,0-.46-.73,5.31,5.31,0,0,0-1.27-.73c-1-.45-2.18-1-2.18-2.17a7.91,7.91,0,0,1,.18-1.37c.09-.54.28-1.18.09-1.36s-.45,0-.72,0a3.24,3.24,0,0,1-2.91-.81c-1.36-1.36-2.27-1.91-3.18-1.91a7.25,7.25,0,0,0-2.27.63,9.42,9.42,0,0,1-3,.73,3.23,3.23,0,0,1-2.09-.9c-.37-.38-.54-.46-.72-.46H1492a3.88,3.88,0,0,1-2.81-.73,2.32,2.32,0,0,1-.64-1.81,6.31,6.31,0,0,1,2.18-4.09l1.18,1.36a4.55,4.55,0,0,0-1.64,2.82c0,.18,0,.45.18.54.28.28,1,.18,1.55.18h.37a2.55,2.55,0,0,1,1.91.91,1.1,1.1,0,0,0,.91.45,12.08,12.08,0,0,0,2.45-.63,9.17,9.17,0,0,1,2.82-.73,6.72,6.72,0,0,1,4.45,2.45,1.55,1.55,0,0,0,1.45.28,2.29,2.29,0,0,1,2.18.54,3,3,0,0,1,.45,3,5.56,5.56,0,0,0-.18,1,4.14,4.14,0,0,0,1.09.55,5.45,5.45,0,0,1,1.82,1.09,4.23,4.23,0,0,1,.81,1.27c.28.73.38.91,1.19.91s1.36-.64,2.08-1.64a5.66,5.66,0,0,1,1.64-1.63,6.33,6.33,0,0,0,1.81-4c0-1.63,1.18-2.27,2.09-2.81a6.39,6.39,0,0,0,1.27-.91,5.7,5.7,0,0,1,.82-.73c.73-.63.82-.72.82-1.54,0-.38-.09-.46-.46-.73a2.35,2.35,0,0,1-.9-1.91c0-.45-1.55-1.72-2.37-2.27-.63-.45-1.18-.91-1.63-1.27a3.18,3.18,0,0,1-.09-4.09l1.45.91-.72-.45.72.45s-.81,1.36-.18,1.91c.38.37.91.73,1.46,1.18,1.45,1.09,3,2.27,3,3.63,0,.28.09.28.37.55a2.66,2.66,0,0,1,1,2.08,3.09,3.09,0,0,1-1.36,2.82,5,5,0,0,0-.73.73,6.12,6.12,0,0,1-1.63,1.18c-.91.54-1.18.73-1.18,1.27a7.61,7.61,0,0,1-2.73,5.45,3.43,3.43,0,0,0-1.09,1.18C1516.27,165.81,1515.37,167.09,1513.64,167.09Z"></path><path class="b" d="M1391.94,159a6.32,6.32,0,0,1-4.45-2.36,12,12,0,0,1-1.18-7.17c0-1.27-1.27-2.09-2.82-2.91a5.88,5.88,0,0,1-1.36-.91c-.9-.9-.63-4.54-.27-7.35l1.72.27a20.12,20.12,0,0,0-.18,6c.09.09.55.27.91.54,1.46.82,3.72,2.09,3.72,4.45a16.5,16.5,0,0,0,.64,6.09,5,5,0,0,0,3.18,1.81c.64,0,1.27-.9,1.81-1.72a15.52,15.52,0,0,1,1-1.27,6.68,6.68,0,0,0,1.91-3.27,4.52,4.52,0,0,1,2.54-3.09,3.25,3.25,0,0,0,.91-.64,10.16,10.16,0,0,0,2.9-7h1.73a12.09,12.09,0,0,1-3.45,8.25,12.74,12.74,0,0,1-1.27.91,3,3,0,0,0-1.73,2,7.92,7.92,0,0,1-2.45,4,5.71,5.71,0,0,0-.81,1.09C1394.41,157.64,1393.41,159,1391.94,159Z"></path><path class="b" d="M1445.35,71.56l-2.17-2.36-2.09-2.09a4.84,4.84,0,0,1-1.82-4.73c.55-1.63,2.36-1.9,3.82-2.08a4.34,4.34,0,0,0,2-.55,1.18,1.18,0,0,0,.28-.45c0-.38-.28-1-1.64-2.36a.47.47,0,0,0-.45-.18c-.27,0-1.18.09-3,1.91a6.31,6.31,0,0,1-.54.9,6.05,6.05,0,0,1-3.45,3.64,7.14,7.14,0,0,1-2.63.45c-.45,0-.45,0-.72.27-1.82,1.82-5.25-1.72-5.36-1.72a2.82,2.82,0,0,1-.73-2.09,2.09,2.09,0,0,0-.45-1.54,2.79,2.79,0,0,0-2-.28c-1,0-2.09.09-2.73-.63a2.39,2.39,0,0,0-1.72.18c-.64.27-.91.54-.91.63a7.23,7.23,0,0,1-.9,2.82,6.9,6.9,0,0,0-.91,2.72c0,1.09,2.27,2,3.37,2a17.46,17.46,0,0,0,3.64-1.27,16.42,16.42,0,0,1,4.53-1.45V65a18,18,0,0,0-3.9,1.36,14.58,14.58,0,0,1-4.27,1.36c-1.72,0-5.17-1.36-5.17-3.81a7.94,7.94,0,0,1,1.09-3.45,7,7,0,0,0,.72-2.09c0-.9.73-1.72,2-2.27a3.8,3.8,0,0,1,3.72.27,5.19,5.19,0,0,0,1.36.09,4.53,4.53,0,0,1,3.38.82,3.87,3.87,0,0,1,1,2.63,1.41,1.41,0,0,0,.18.9c1.09,1.09,2.54,1.91,2.9,1.73a2.22,2.22,0,0,1,1.91-.73,5.76,5.76,0,0,0,2.09-.37,4.59,4.59,0,0,0,2.45-2.73,5,5,0,0,1,.82-1.36,6.74,6.74,0,0,1,4.26-2.45h0a2.53,2.53,0,0,1,1.73.72,5.84,5.84,0,0,1,2.09,3.64,2.29,2.29,0,0,1-.73,1.63,5.14,5.14,0,0,1-3,1c-1.09.18-2.27.27-2.45.91-.38,1.18.45,2,1.36,2.9l2.18,2.18,2.17,2.36Z"></path><path class="b" d="M1397.86,56.21c.18.37.54.91.82,1.45a1.36,1.36,0,0,1-.09-.63c-.09-.16-.18-.31-.28-.46a1.58,1.58,0,0,0-.44-.37Zm79.37,27.33c-1.73,0-7.9-.72-8.18-.72l.18-1.73c.09,0,6.38.73,8,.73a7.21,7.21,0,0,0,2.72-1,18.77,18.77,0,0,1,3.81-1.54c2.55-.73,4.54-3.09,4.54-4.36s1.36-2,2.63-2.73c.82-.45,2-1.09,2-1.54a8.34,8.34,0,0,0-1.64-3.27,7.67,7.67,0,0,1-1.54-3.38,1.47,1.47,0,0,1,1-1.45c1.46-.64,4,.64,5.09,1.63a5.27,5.27,0,0,0,1.91,1.18,3,3,0,0,0-.28-.63,4,4,0,0,1,1.46-5.63,4.78,4.78,0,0,0,.72-.63c.09-.09.09-.09.09-.18,0-.82-1.54-2.36-2.27-3.09l-.18-.09a5.6,5.6,0,0,1-1.09-2.45,3.89,3.89,0,0,0-2.18-3.27,12.11,12.11,0,0,0-2.54-.55,7.91,7.91,0,0,1-4.08-1.27c-.46-.45-1-.37-1.91-.27s-2.45.27-3-1.27a5.77,5.77,0,0,1,1-4.82,3,3,0,0,1,2.17-1.45,6.17,6.17,0,0,0,1.82-.64,5.63,5.63,0,0,1,2.54-.9,3.88,3.88,0,0,0,3.45-2.46,7.33,7.33,0,0,1,.37-2.08,17,17,0,0,0-4.54-.55,6.43,6.43,0,0,1-3.27-.45,16.67,16.67,0,0,0-5.54-.54h-.54a16.6,16.6,0,0,1-7.36-2.18,6.59,6.59,0,0,0-1.36-.91,4.35,4.35,0,0,1-2-1.63,6.46,6.46,0,0,0-5.36-3,12.39,12.39,0,0,1-2.63-.46c-1.36-.37-2.27-.54-2.81,0a20.55,20.55,0,0,0-2.09,2.73A18.59,18.59,0,0,1,1455,28.5a1.5,1.5,0,0,0-.37.46,2.81,2.81,0,0,1-1.91,1.36,2.54,2.54,0,0,1-2.09-1,5.06,5.06,0,0,0-4.18-1.54,1.63,1.63,0,0,0-1.27,1.36,6,6,0,0,1-3.72,4.26,2.46,2.46,0,0,1-2.36-.64,6,6,0,0,1-1.09-1.63c-.55-1.09-.91-1.63-1.82-1.63-1.91,0-2.54-1.73-2.9-2.73-.09-.18-.09-.27-.18-.45a15.54,15.54,0,0,0-3.27,3,3.07,3.07,0,0,0-.55.9c-.37.91-.72,1.64-2.81,2.27a15.4,15.4,0,0,1-7.26-.52,22.15,22.15,0,0,0-2.54-.45c-.46,0-.82.38-1.36.91a3.92,3.92,0,0,1-2.91,1.63,19.24,19.24,0,0,0-2,.28c-1.54.27-3.37.63-4.54-.55a7.11,7.11,0,0,1-1.54-2.81,5.53,5.53,0,0,0-1.09-2.18c-.91-.91-4.91-1.55-5.9-.54a9.27,9.27,0,0,1-2.73,1.72,9.59,9.59,0,0,0-2.09,1.18s-2.18,1.81-3.9,3.54a3.26,3.26,0,0,0-1.09,3.55v.1a3.11,3.11,0,0,0,1.9.9,7.07,7.07,0,0,0,3.09-.81c.18-.09.28-.09.28-.91a4.89,4.89,0,0,1,.72-2.91,3.82,3.82,0,0,1,1.18-.81c.73-.28,1-.46,1-.73a2.14,2.14,0,0,1,1.55-1.91,3,3,0,0,1,3,.64,2.69,2.69,0,0,1,.84,1.89,2.73,2.73,0,0,1-.75,1.92c-.09.18-.28.38-.28.46.28.18,1.18,0,1.73-.09,1.09-.18,2.17-.38,2.9.37a2,2,0,0,1,.64,1.54,10.13,10.13,0,0,1-3.81,6.54,6.62,6.62,0,0,0-1,1.36,3.53,3.53,0,0,1-3.38,2,4,4,0,0,1-2.9-1.27,1.59,1.59,0,0,0-1.27-.64c-.45,0-.82.38-1.36,1a4.52,4.52,0,0,1-3.45,1.91,4.07,4.07,0,0,1-3.38-2.18c-.45-.64-.63-.91-.9-.91-1.46,0-5.54,1.46-6.18,3.45a12,12,0,0,0-.37,1.46,5.39,5.39,0,0,1-2.63,4.17,6.63,6.63,0,0,1-3.63.82,15.39,15.39,0,0,0-2.72,3.09l-.09.18a8.42,8.42,0,0,0-1.36,4.27,7.06,7.06,0,0,0,.54,3.54c1.09.27,1.54,1.18,2,2s.54,1,.81,1a5.69,5.69,0,0,0,4.82-4.17,8.89,8.89,0,0,1,4.26-5.63c.46-.27,1.1-.72,1.82-1.18a10.37,10.37,0,0,1,4.54-2.27,1.69,1.69,0,0,1,1.72,1.18h.46a6.7,6.7,0,0,1,4.26.91,1.87,1.87,0,0,1,.55,1.36c0,.27.09.38.54.64a2.25,2.25,0,0,1,1.36,2.18,7.75,7.75,0,0,0,2.54,4.08,3.66,3.66,0,0,0,3.09.55,11.27,11.27,0,0,1,.18-1.64,3.68,3.68,0,0,0-.09-2.45c-.27-.54-.91-1.46-1.54-2.45A13,13,0,0,1,1396,55.7a1.46,1.46,0,0,1,.46-1,1.23,1.23,0,0,1,.9-.28,3.37,3.37,0,0,1,3.09,2.82c0,.27.82.73,1.36,1a4.16,4.16,0,0,1,1.46,1,7.65,7.65,0,0,1,2,4.82,15.6,15.6,0,0,0,1,4.72c.38-1,.91-2.73,1.18-3.54.09-.46.18-1,.28-1.55.18-1.54.45-3.45,2.27-3.45,1.45,0,2,1.91,2.45,3.64a8,8,0,0,0,.54,1.72,4.07,4.07,0,0,0,.64.54,3.57,3.57,0,0,1,1.64,2.63,22.23,22.23,0,0,0,.63,3.63c.09.28.09.54.18.91a5.93,5.93,0,0,0,.82,2.45c.18.18.64.18,1.09.27a4,4,0,0,1,1.91.46c.23.16.48.31.73.45a3.61,3.61,0,0,0,2.08.91,7.94,7.94,0,0,0,4.36-1.36l1.1,1.36a9.35,9.35,0,0,1-5.45,1.72,5.23,5.23,0,0,1-3.09-1.18,2,2,0,0,0-.54-.37,2.22,2.22,0,0,0-1.19-.18,3.35,3.35,0,0,1-2.17-.73,7.28,7.28,0,0,1-1.36-3.37c-.09-.28-.09-.55-.18-.82a25.6,25.6,0,0,1-.64-4.09c0-.45-.38-.73-1-1.27a3.91,3.91,0,0,1-1.72-3.18,11.34,11.34,0,0,0-.73-2.27,4.86,4.86,0,0,0-.45,1.91c-.09.54-.18,1.18-.28,1.72s-.54,1.91-.9,2.91c-.64,1.72-1,2.72-2,2.54-2.18-.64-2.73-6.26-2.73-7a5.66,5.66,0,0,0-1.45-3.54,3.76,3.76,0,0,0-1.09-.64,7.22,7.22,0,0,1-1.73-1.09c.28.45.64.91.82,1.27a20.82,20.82,0,0,1,1.63,2.62,5.48,5.48,0,0,1,.28,3.55,6.18,6.18,0,0,0-.18,1.36,1.89,1.89,0,0,1-1.09,1.63,5.29,5.29,0,0,1-4.91-1,9.14,9.14,0,0,1-3.09-5.35c0-.28-.09-.38-.54-.64a2.25,2.25,0,0,1-1.36-2.18c0-.09,0-.09-.09-.18-.45-.45-2.18-.45-3-.45h-.45a1.53,1.53,0,0,1-1.73-1.18h-.09a11.09,11.09,0,0,0-3.54,2c-.73.45-1.36.9-1.91,1.27a7.52,7.52,0,0,0-3.45,4.54,7.32,7.32,0,0,1-6.45,5.44c-1.36,0-1.9-1.09-2.36-1.91-.37-.63-.63-1.09-.9-1.09-.46-.09-1.82-.45-1.82-5.17a9.6,9.6,0,0,1,1.55-5.09l.09-.18a21.23,21.23,0,0,1,3.37-3.9l.37-.38.46.18a4.78,4.78,0,0,0,2.9-.54c1-.55,1.27-1.27,1.73-3.09.09-.45.27-1,.37-1.54.91-2.91,5.9-4.73,7.81-4.73a2.69,2.69,0,0,1,2.36,1.73c.55.81,1,1.36,1.91,1.36a2.54,2.54,0,0,0,2.09-1.27,3.55,3.55,0,0,1,2.72-1.64,3.46,3.46,0,0,1,2.46,1.09,2.1,2.1,0,0,0,1.72.82c1.09,0,1.27-.38,1.91-1.27a8.09,8.09,0,0,1,1.27-1.64c1.45-1.45,3.27-3.26,3.27-5.24V38a4.48,4.48,0,0,0-1.46.09,3.7,3.7,0,0,1-3.26-.45c-1-1-.18-2.18.18-2.73.54-.81.72-1,.09-1.54a1.41,1.41,0,0,0-1.19-.28.66.66,0,0,0-.37.46c-.09,1.36-1.36,1.91-2.09,2.18-.18.09-.45.18-.45.27a2.24,2.24,0,0,0-.38,1.81,2.24,2.24,0,0,1-1.27,2.46,7.22,7.22,0,0,1-4.26,1c-1.36-.27-3-1.18-3.18-2.36v-.09a5,5,0,0,1,1.54-5.18c1.82-1.81,4-3.63,4.09-3.72a8.9,8.9,0,0,1,2.54-1.45,8.45,8.45,0,0,0,2.27-1.36,7.71,7.71,0,0,1,8.45.54,7.08,7.08,0,0,1,1.54,2.82,5.49,5.49,0,0,0,1.09,2.17c.55.55,1.73.28,3,0a9.72,9.72,0,0,1,2.27-.27c.64,0,1-.37,1.64-1.09a3.65,3.65,0,0,1,2.62-1.46,17,17,0,0,1,2.91.46,16.15,16.15,0,0,0,6.45.54c1.36-.37,1.45-.73,1.63-1.18a4.56,4.56,0,0,1,.91-1.45c3.37-3.64,4.45-3.64,4.81-3.64,1,0,1.27.91,1.64,1.73.45,1.09.72,1.54,1.27,1.54a3.7,3.7,0,0,1,3.37,2.54,13.52,13.52,0,0,0,.82,1.28.71.71,0,0,0,.72.18c.82-.18,1.82-1.19,2.46-3.09a3.51,3.51,0,0,1,2.54-2.46,6.91,6.91,0,0,1,5.81,2c.54.55.73.55.73.55s.45-.46.63-.64a3.72,3.72,0,0,1,.55-.64,8.75,8.75,0,0,0,1.09-1.54,22.72,22.72,0,0,1,2.27-3,4.38,4.38,0,0,1,4.45-.46,9.71,9.71,0,0,0,2.27.38,8.27,8.27,0,0,1,7,3.91,2.55,2.55,0,0,0,1.18.9,6.77,6.77,0,0,1,1.82,1.27,16.32,16.32,0,0,0,6.08,1.64h.45a14,14,0,0,1,6.54.91c.28.09,1.46.09,2.27.18,2.37.09,5,.09,6.18,1.27l.37.37-.18.54a9.39,9.39,0,0,0-.45,2.09,5.45,5.45,0,0,1-5.25,4.27,6.21,6.21,0,0,0-1.81.64,5.71,5.71,0,0,1-2.54.9c-.09,0-.38.09-.73.73a3.85,3.85,0,0,0-.73,3.27c.09.18.09.27,1.18.18a3.75,3.75,0,0,1,3.38.82,7.87,7.87,0,0,0,3.09.81,11.73,11.73,0,0,1,3,.64,5.57,5.57,0,0,1,3.18,4.45,4,4,0,0,0,.64,1.64l.09.09c1.18,1.18,2.82,2.81,2.82,4.36a2.22,2.22,0,0,1-.55,1.45,9.79,9.79,0,0,1-1,.82c-1.19.9-1.91,1.45-1,3.45.27.54,1.09,2.17,0,3-1.36,1-3.81-1-4.36-1.55a5.73,5.73,0,0,0-3-1.36,8.82,8.82,0,0,0,1.27,2.36,9.45,9.45,0,0,1,1.91,4.18c0,1.54-1.55,2.36-3,3.18-.54.27-1.64.81-1.64,1.18a7.93,7.93,0,0,1-5.81,6,16.27,16.27,0,0,0-3.54,1.45C1479.4,83,1478.31,83.54,1477.23,83.54Z"></path><path class="b" d="M1496,44a.79.79,0,0,0,.28.45.8.8,0,0,0,.72.38,1.48,1.48,0,0,1,1.09.45v-.18c0-.27-.91-.81-2.09-1.09Zm3.73,3.37A5.76,5.76,0,0,0,1501,49a.44.44,0,0,0,.27-.09,1.23,1.23,0,0,0-.27-.64,10.23,10.23,0,0,0-1-.73.3.3,0,0,1-.27-.09Zm1.27,3.27c-1.18,0-2-1.18-2.82-2.45a5.87,5.87,0,0,0-1.27-1.54h0a2.74,2.74,0,0,1-2.36-1.64,2.28,2.28,0,0,1,0-2.18,1.69,1.69,0,0,1,1.63-.54h0c1.73.27,3.73,1.18,3.73,2.82,0,.27.54.54,1,.9a6.72,6.72,0,0,1,1.36,1,2.32,2.32,0,0,1,.64,2.54A1.86,1.86,0,0,1,1501,50.67Z"></path><path class="b" d="M1504.47,52.85a1.1,1.1,0,0,0-.18.63v.28l-.18.27a6.56,6.56,0,0,0,.54.73,1.65,1.65,0,0,0,.38.45,13.73,13.73,0,0,0-.56-2.36Zm1.36,5.54c0,.18.09.37.09.64a4.28,4.28,0,0,1-.45,3.54,6,6,0,0,0-.73,1.54,1.32,1.32,0,0,0-.18.55,1.89,1.89,0,0,1,1-.09c.27.09.45.09.81-.55a13.35,13.35,0,0,0,.38-4.08,4.76,4.76,0,0,0-.91-1.55Zm-2.18,7.44-.37.38a1.18,1.18,0,0,0,.09.37,7.61,7.61,0,0,1,.28-.75Zm0,2.91a1.77,1.77,0,0,1-1.36-.91c-1.54-2-.27-3,.27-3.45.09-.09.18-.09.28-.18a3.13,3.13,0,0,0,.27-.72,7.71,7.71,0,0,1,1.09-2.09,4,4,0,0,0,.09-2.18,15.24,15.24,0,0,1-.18-1.91,2.56,2.56,0,0,0-.81-1.54c-.55-.64-1.28-1.64-.64-2.63a2.16,2.16,0,0,1,2-2.09c1.9,0,2.17,3.45,2.17,5.54a2.64,2.64,0,0,0,.55.91,5,5,0,0,1,1.09,2.63,10,10,0,0,1-.64,5.08,2.33,2.33,0,0,1-2.45,1.27c-.09.18-.09.45-.18.64-.18.73-.38,1.54-1.18,1.72a.69.69,0,0,0-.38-.09Z"></path><path class="b" d="M1368.26,46.49a3.12,3.12,0,0,1,2.45,1.36c.18.18.27.38.38.38a11.06,11.06,0,0,0,.81-1c.28-.37.55-.73.91-1.18,1.09-1.27,1.09-1.27,1.09-1.63V44a4.37,4.37,0,0,1,.38-1.63,2.53,2.53,0,0,0,.18-.55,3,3,0,0,1-.55-1.91,4.75,4.75,0,0,0-.18-1.18,7.07,7.07,0,0,0-.73,2.46,2.52,2.52,0,0,1-.7,2,2.56,2.56,0,0,1-2,.77h-.45l-.28-.37a2.2,2.2,0,0,0-.72-.64,14,14,0,0,0-1.55,1.63l-.45.55a1.48,1.48,0,0,0-.38,1.36.39.39,0,0,0,.38.18,1.69,1.69,0,0,0,.63-.09c.26,0,.53-.07.8-.07Zm2.81,3.55a2.34,2.34,0,0,1-1.72-1.1c-.73-.81-1-.81-1.63-.63a2.82,2.82,0,0,1-.91.09,2.14,2.14,0,0,1-1.91-1.18,3,3,0,0,1,.54-3.18l.46-.55c1.18-1.36,2-2.27,2.9-2.27h.09a2.77,2.77,0,0,1,1.64,1c.37-.09.54-.27.54-1s.64-3.9,2-4.45a1.42,1.42,0,0,1,1.54.38,4.76,4.76,0,0,1,.91,2.62c0,.27.09.73.09.82a2.1,2.1,0,0,1,.18,2.27,4.58,4.58,0,0,0-.27,1.09v.38c.09,1.09-.18,1.36-1.46,2.9a4.59,4.59,0,0,0-.82,1.09c-.63.91-1.18,1.73-2.17,1.73Z"></path><path class="b" d="M1410.12,211.94l-1.09-1.36c4.54-3.72,24.24-8.81,29-8.81h3.54c4.72,0,24.43,4.27,29,8.09l-1.09,1.36c-4-3.38-22.87-7.72-27.88-7.72H1438C1433.55,203.5,1414.39,208.49,1410.12,211.94Z"></path><path class="b" d="M1499.48,197.23c-13.62-10.35-53.13-12.89-58.21-12.89h-3c-5.18,0-44.59,2.54-58.21,12.89l-1.09-1.36c14-10.62,54-13.26,59.3-13.26h3c5.17,0,45.31,2.63,59.29,13.26Z"></path><path class="b" d="M1356.36,174.88l-1-1.45c8.45-5.63,55.67-12.8,84.18-12.8h.28c26.88,0,74.64,6.26,83.45,12.07l-1,1.46c-8.08-5.25-53.58-11.72-82.54-11.72h-.28C1411.3,162.36,1364.54,169.35,1356.36,174.88Z"></path><path class="b" d="M1441.54,22.52H1438c-5.25,0-23.79-4.45-28.24-8.08l1.09-1.36c4,3.37,22.34,7.72,27.15,7.72h3.54c4.73,0,23.16-3.64,27.16-7.09l1.09,1.36C1465.15,19,1446,22.52,1441.54,22.52Z"></path><path class="b" d="M1440.79,43.68h-3.08c-7.18,0-46.68-2.18-60.66-12.53l1-1.36C1391.57,39.87,1430.53,42,1437.61,42h3.09c7.08,0,46-2.08,59.57-12.16l1,1.36C1487.49,41.5,1448,43.68,1440.79,43.68Z"></path><path class="b" d="M1439.91,65.38h-.28c-28.6,0-74.28-8.08-82.81-14.62l1.09-1.36c8.08,6.26,53.94,14.24,81.72,14.24h.28c28.33,0,73-7.44,81.09-13.53l1.09,1.37C1514.27,57.3,1471.51,65.38,1439.91,65.38Z"></path><path class="b" d="M1439,224.93a112.64,112.64,0,0,1-110.24-89.8l1.72-.37a110.72,110.72,0,0,0,214.94,7.9l1.73.45A112.8,112.8,0,0,1,1439,224.93Z"></path><path class="b" d="M1546.33,85.36A110.49,110.49,0,0,0,1439,1.72a108.73,108.73,0,0,0-68.2,23.89,111.85,111.85,0,0,0-38.86,59.57l-1.82-.46a114.4,114.4,0,0,1,39.5-60.47A110.7,110.7,0,0,1,1439,0a112.25,112.25,0,0,1,109.06,84.9Z"></path><path class="b" d="M1439,216.39a103.71,103.71,0,0,1-98-69.71l1.63-.57a102,102,0,0,0,196.06-11.71l1.72.37A103.42,103.42,0,0,1,1439,216.4Z"></path><path class="b" d="M1340.65,85.72l-1.72-.45a103.7,103.7,0,0,1,197.87-6.9l-1.64.54a101.9,101.9,0,0,0-194.51,6.81Z"></path><path class="b" d="M1449.8,71.65a357.84,357.84,0,0,0-11.71-61.48l1.63-.55a363.29,363.29,0,0,1,11.72,61.86Z"></path><path class="b" d="M1439.81,215.76l-1.72-.46A412.87,412.87,0,0,0,1451,140l1.73.09a408.32,408.32,0,0,1-12.9,75.73Z"></path><path class="b" d="M1475.5,85.63c-6.37-38.14-30.24-71.1-37-75l.91-1.54c7.17,4.18,31.24,37,37.86,76.28Z"></path><path class="b" d="M1439.45,216.3l-.91-1.54c6.45-3.81,29.7-35.78,36.51-73.1l1.72.27C1469.69,180.43,1446.26,212.31,1439.45,216.3Z"></path><path class="b" d="M1499,75.55c-12.8-34.69-44.68-62-60.11-64.84l.27-1.72c15.8,2.91,48.4,30.69,61.39,65.93Z"></path><path class="b" d="M1439.09,216.39l-.27-1.72c15-2.73,46.48-29.78,59.75-64.2l1.63.63a132.61,132.61,0,0,1-29.33,44.32C1459.43,206.86,1447.35,214.85,1439.09,216.39Z"></path><path class="b" d="M1518.1,71.65c-13.35-30.42-43.58-55.48-73.47-60.73l.27-1.73c31,5.54,60.93,30.33,74.73,61.86Z"></path><path class="b" d="M1443.9,216.3l-.27-1.72a98.82,98.82,0,0,0,48.94-26.07,106.53,106.53,0,0,0,31.06-51.85l1.72.46a108.62,108.62,0,0,1-31.6,52.76A102.23,102.23,0,0,1,1443.9,216.3Z"></path><path class="b" d="M1429.1,75.73l-1.73-.18a481.52,481.52,0,0,1,10.72-66l1.72.46a479.05,479.05,0,0,0-10.71,65.74Z"></path><path class="b" d="M1438.08,215.76a420.12,420.12,0,0,1-11.25-65.2l1.73-.18a429.29,429.29,0,0,0,11.24,64.85Z"></path><path class="b" d="M1403.85,85.73l-1.72-.28c6.72-40.13,29.69-72.37,36.51-76.28l.9,1.55C1433.09,14.35,1410.38,46.77,1403.85,85.73Z"></path><path class="b" d="M1438.54,216.3c-6.72-4-29.69-36.59-36.41-76.73l1.72-.27c6.54,39,29.24,71.74,35.51,75.46Z"></path><path class="b" d="M1381.88,71.92l-1.64-.64c14.17-34.49,43.68-59.57,58.58-62.29l.27,1.72c-7.63,1.36-18.62,8.62-29.15,19.34a132,132,0,0,0-28.06,41.87Z"></path><path class="b" d="M1438.82,216.39c-17.17-3.18-50.86-35-62.11-72.64l1.63-.55c11.17,37.05,44,68.38,60.84,71.38Z"></path><path class="b" d="M1359.27,76.91l-1.64-.64c12.72-33.69,44.32-61.29,77-67.19l.27,1.72C1402.86,16.62,1371.71,43.77,1359.27,76.91Z"></path><path class="b" d="M1435.55,216.3c-31.42-5.72-63.73-32.87-76.83-64.75l1.64-.63c12.89,31.33,44.58,58.1,75.55,63.65Z"></path><path class="b" d="M1618,100.16a24.76,24.76,0,0,1-8,18.8l-15.43,17.8a32.51,32.51,0,0,0,1.9-33.69c3.18-.18,6.45-6.54,8.72-9.81a15.88,15.88,0,0,1,9.81-7A33.6,33.6,0,0,1,1618,100.16Z"></path><path class="b" d="M1556.4,85.54l10.9-9.26a32.82,32.82,0,0,1,20.89-7.36,28.51,28.51,0,0,1,12.26,2.63c-.64,1.09-4.18,7.35-9.72,8.24-6.09.91-10.26,3.27-12.17,7.9v.09A32.36,32.36,0,0,0,1547.78,93Z"></path><path class="b" d="M1541.33,85.54l-15.43,16.87A31.56,31.56,0,0,0,1516.45,92l.09-.09c1.82-5.09,4.18-8.9,8.9-9.81a20.65,20.65,0,0,0,7.72-5.81,21.8,21.8,0,0,1,8.17,9.26Z"></path><path class="b" d="M1523.18,71.92c0,.09-10.27,3.09-11.17,5.44-2.18,5.55-3.09,7.63-9.63,8.81a38.24,38.24,0,0,0-4.54-.37,32.28,32.28,0,0,0-20.07,7l9-7.26L1499,75.72a28.61,28.61,0,0,1,15.8-4.72A36.1,36.1,0,0,1,1523.18,71.92Z"></path><path class="b" d="M1471.05,85.54l-15.35,16.8a32.2,32.2,0,0,0-9.17-10.26l.18-.18c1.81-5.08,4.18-8.9,8.9-9.81a20.2,20.2,0,0,0,7.63-5.72,24,24,0,0,1,7.81,9.17Z"></path><path class="b" d="M1416.39,85.54l12.35-9.9a28.64,28.64,0,0,1,15.8-4.72,38,38,0,0,1,8.63,1h0s-10.26,3-11.17,5.35c-2.18,5.55-3.09,7.63-9.72,8.81a41.31,41.31,0,0,0-4.72-.37,32.4,32.4,0,0,0-20.07,7l-.09-.09Z"></path><path class="b" d="M1401.22,85.54l-15.53,17h-.09A32.85,32.85,0,0,0,1376.16,92l.09-.09c1.91-5.08,4.17-8.9,8.9-9.81a20.61,20.61,0,0,0,7.81-5.9,25,25,0,0,1,8.24,9.35Z"></path><path class="b" d="M1346.45,85.54l12.37-9.9a28.61,28.61,0,0,1,15.8-4.72,37.69,37.69,0,0,1,6.37.54c-1.81.82-8.53,3.82-9.37,5.9-2.18,5.55-3.09,7.63-9.63,8.81a38.24,38.24,0,0,0-4.54-.37,32.27,32.27,0,0,0-19.25,6.37Z"></path><path class="b" d="M1331,85.54l-15.44,16.87h-.18a31.51,31.51,0,0,0-6.54-8.17,60.36,60.36,0,0,0,6.26-8.08,21.89,21.89,0,0,1,10.08-8.7A34.6,34.6,0,0,1,1331,85.54Z"></path><path class="b" d="M1304.15,68.92a30.4,30.4,0,0,1,7.17.82c-4.9,1.63-11.62,5-11.17,8.08.46,3.27-7.89,8.36-7.89,8.36v.09a31.07,31.07,0,0,0-5.09-.38,32.47,32.47,0,0,0-17.44,5.1l24.07-19.8A24.62,24.62,0,0,1,1304.15,68.92Z"></path><path class="b" d="M1567.58,151.56A33.44,33.44,0,0,1,1538.79,135h-12.62a33.33,33.33,0,0,1-57.57,0H1456a33.33,33.33,0,0,1-57.57,0H1385.8a33.33,33.33,0,0,1-57.57,0h-12.37a33.27,33.27,0,1,1-28.78-50,30.77,30.77,0,0,1,5.25.37,32.37,32.37,0,0,1,17.07,8.17,34,34,0,0,1,6.45,7.9h12.62a32.46,32.46,0,0,1,9-10l1.09,1.36a32.44,32.44,0,0,0-8.72,9.9l-.27.45h-14.71l-.27-.45a31,31,0,0,0-22.51-15.62,26.1,26.1,0,0,0-5-.38,32.1,32.1,0,0,0-17,4.9,31.53,31.53,0,1,0,44.41,42.05l.27-.46h14.62l.28.46a31.59,31.59,0,0,0,55,0l.27-.46h14.62l.27.46a31.59,31.59,0,0,0,55,0l.28-.46h14.62l.27.46a31.59,31.59,0,0,0,55,0l.27-.46H1540l.28.46a31.62,31.62,0,0,0,48.94,7.72,40.55,40.55,0,0,0,4.63-5.25,31.41,31.41,0,0,0,5.54-18,30.87,30.87,0,0,0-3.72-14.8,31.55,31.55,0,0,0-17.44-14.89,31.16,31.16,0,0,0-10.44-1.73,31.88,31.88,0,0,0-19.53,6.82l-1.09-1.36A33.42,33.42,0,0,1,1567.78,85a32.14,32.14,0,0,1,11,1.91,33.36,33.36,0,0,1,16.35,50.4,38,38,0,0,1-4.82,5.62,34.8,34.8,0,0,1-22.72,8.62Z"></path><path class="b" d="M1399.86,103.52h-14.62l-.38-.45a30.91,30.91,0,0,0-9.17-10.26,30,30,0,0,0-13.89-5.55,36.92,36.92,0,0,0-4.45-.37,31.41,31.41,0,0,0-18.7,6.17l-1.1-1.36a33.58,33.58,0,0,1,19.8-6.53,39.94,39.94,0,0,1,4.63.37,31.85,31.85,0,0,1,14.62,5.9,33.14,33.14,0,0,1,9.44,10.35h12.71a32.88,32.88,0,0,1,8.17-9.44,33.48,33.48,0,0,1,20.62-7.18,41,41,0,0,1,4.82.38,33.59,33.59,0,0,1,24,16.17H1469a33.3,33.3,0,0,1,28.79-16.62,39.94,39.94,0,0,1,4.63.37,31.85,31.85,0,0,1,14.62,5.9,34.13,34.13,0,0,1,9.44,10.26h12.63a32.46,32.46,0,0,1,6.27-7.92l.54-.54a16.84,16.84,0,0,1,1.28-1.1l1,1.46c-.37.27-.72.64-1.18,1a3.73,3.73,0,0,1-.64.54,28.34,28.34,0,0,0-6.17,7.81l-.27.45h-14.62l-.28-.45a31.68,31.68,0,0,0-9.17-10.17,30.34,30.34,0,0,0-13.89-5.54,36.93,36.93,0,0,0-4.45-.38,31.38,31.38,0,0,0-19.53,6.81,31.94,31.94,0,0,0-8,9.36l-.27.45h-15v-.54a33.12,33.12,0,0,0-8.9-10,30.27,30.27,0,0,0-13.89-5.63,37.85,37.85,0,0,0-4.63-.37A31.66,31.66,0,0,0,1399.74,103Z"></path><path class="b" d="M1270.28,91.63l-1.09-1.37,24.15-19.86.09-.09a26.38,26.38,0,0,1,10.81-2.37,32.56,32.56,0,0,1,7.36.82,29.78,29.78,0,0,1,14.16,7.9,32.07,32.07,0,0,1,6.09,8.17l.09.18v.16a.57.57,0,0,0-.18-.45L1330.49,86a.8.8,0,0,1-.28-.55,30.26,30.26,0,0,0-5.72-7.63,28.88,28.88,0,0,0-13.44-7.53,29.45,29.45,0,0,0-7-.82,23.94,23.94,0,0,0-10,2.18Z"></path><polygon class="b" points="1316.22 102.98 1316.13 102.89 1314.68 102.16 1314.95 101.78 1330.57 84.63 1331.12 84.63 1331.12 85.63 1331.66 86.08 1316.22 102.95 1316.22 102.98"></polygon><path class="b" d="M1386.05,103.16l-1.27-1.27.09-.09L1400,85.46a22.34,22.34,0,0,0-7.81-8.45,28.59,28.59,0,0,0-11.62-4.54,35.58,35.58,0,0,0-6.18-.54,27.69,27.69,0,0,0-15.34,4.54l-20.72,16.6h-.09l-1.45,1.18-1.09-1.36,2-1.55h.09l8.09-6.52,12.17-9.72a29.24,29.24,0,0,1,16.34-4.9,39.59,39.59,0,0,1,6.53.54,29.57,29.57,0,0,1,12.37,4.81,24.6,24.6,0,0,1,8.63,9.72l.27.55Z"></path><path class="b" d="M1456.25,103.07l-1.45-1,.27-.37,15-16.44a24.38,24.38,0,0,0-7.45-8.35,29,29,0,0,0-9.63-4.27,38.1,38.1,0,0,0-8.44-1,27.88,27.88,0,0,0-15.35,4.54L1416.85,86,1408,93.26,1407,91.9l8.81-7.27,12.44-9.9a29.24,29.24,0,0,1,16.35-4.9,41.53,41.53,0,0,1,8.81,1,32.2,32.2,0,0,1,10.17,4.45,25.39,25.39,0,0,1,8.25,9.53l.27.54-.54.55-15.17,17Z"></path><path class="b" d="M1526.35,103.16l-1.27-1.27.18-.18,15.08-16.53a22.7,22.7,0,0,0-7.72-8.36,29.29,29.29,0,0,0-9.81-4.17,31.86,31.86,0,0,0-8.08-.91,27.88,27.88,0,0,0-15.35,4.54l-12.17,10-9,7.26-1.1-1.36,9-7.26,12.44-9.9a29.24,29.24,0,0,1,16.35-4.9,34.85,34.85,0,0,1,8.45.91,29.92,29.92,0,0,1,10.35,4.35,24.18,24.18,0,0,1,8.53,9.63l.28.55-.55.54Z"></path><path class="b" d="M1595.19,137.3l-1.36-1.18,15.43-17.8a24.33,24.33,0,0,0,7.81-18.25,32.9,32.9,0,0,0-2.91-13.54,27.91,27.91,0,0,0-26.06-16.79,32.31,32.31,0,0,0-20.34,7.17l-10.89,9.27-10.35,8.9-1.1-1.36,1.82-1.55,8.54-7.35,10.89-9.27A34.58,34.58,0,0,1,1588.11,68a29.81,29.81,0,0,1,27.69,17.89,34.62,34.62,0,0,1,3.09,14.24,25.87,25.87,0,0,1-8.25,19.44Z"></path><polygon class="b" points="1556.5 86.36 1540.97 86.36 1540.97 84.63 1556.41 84.63 1556.5 86.36"></polygon><rect class="b" x="1470.69" y="84.63" width="15.89" height="1.72"></rect><rect class="b" x="1401.22" y="84.63" width="15.44" height="1.72"></rect><rect class="b" x="1330.85" y="84.63" width="15.62" height="1.72"></rect><path class="b" d="M1579.39,87.9l-1.64-.63c1.91-4.63,6.08-7.45,12.8-8.45,5-.73,8.45-6.63,9.08-7.81l.18-.18a.54.54,0,0,0-.18.45h1.74a.85.85,0,0,1-.28.64c-1.09,1.91-4.72,7.81-10.35,8.62C1584.65,81.45,1581,83.82,1579.39,87.9Z"></path><path class="b" d="M1596.46,103.88h-.09v-1.72h.09c2-.09,4.63-4.18,6.54-7.18a24.48,24.48,0,0,1,1.54-2.27A16.78,16.78,0,0,1,1615,85.36h.55v1.73h-.46a15.2,15.2,0,0,0-9.08,6.62c-.45.64-.9,1.46-1.45,2.28-2.45,3.63-5.08,7.71-8.08,7.89Z"></path><path class="b" d="M1447.44,92.17l-1.63-.54c1.63-4.54,4-9.26,9.53-10.35a17.57,17.57,0,0,0,7.08-5.45,4.3,4.3,0,0,1,.64-.64l.82,1.55c.09,0,0,0,0,.09l-.09.09a20.28,20.28,0,0,1-8.09,6C1451.89,83.64,1449.53,86.36,1447.44,92.17Z"></path><path class="b" d="M1432.28,87.09l-.28-1.73c6.18-1.09,6.91-2.72,9.08-8.25,1-2.62,9.27-5.17,11.81-5.9l.45,1.64a27,27,0,0,0-10.62,4.81C1440.54,83.27,1439.45,85.82,1432.28,87.09Z"></path><path class="b" d="M1377.06,92.17l-1.63-.64c1.81-4.81,4.18-9.37,9.53-10.35a19.09,19.09,0,0,0,7.36-5.62l.18-.18,1.27,1.27-.18.18a20,20,0,0,1-8.25,6.17C1381,83.73,1378.88,87.18,1377.06,92.17Z"></path><path class="b" d="M1362,87.08h-.27V85.36h.09c6.09-1.09,6.81-2.9,8.9-8.25.64-1.63,4-3.72,9.81-6.37.27-.09.37-.18.45-.18l.82,1.54-.55.28c-6,2.72-8.44,4.63-8.8,5.45-2.18,5.44-3.18,8-10.45,9.26Z"></path><path class="b" d="M1517.45,92.15l-1.63-.54c1.63-4.54,4-9.27,9.53-10.35a19.08,19.08,0,0,0,7.18-5.45,1.09,1.09,0,0,1,.91-.54V77a.8.8,0,0,0,.63-.27l-.09.18a20.08,20.08,0,0,1-8.17,6.08C1521.9,83.64,1519.54,86.36,1517.45,92.15Z"></path><path class="b" d="M1502.29,87.09H1502V85.36h.09c6.08-1.09,6.81-2.9,8.9-8.25,1-2.54,9.26-5.17,11.71-5.9l.46,1.64a26.94,26.94,0,0,0-10.63,4.81c-2,5.62-3,8.17-10.26,9.44Z"></path><path class="b" d="M1292.8,86.91l-.91-1.46c3.27-2,7.72-5.62,7.44-7.44-.72-4.73,10.45-8.63,11.72-9l.54,1.63c-5.45,1.82-10.9,5-10.62,7.08C1301.6,81.36,1294.25,86,1292.8,86.91Z"></path><path class="b" d="M1309.32,95l-1.54-.81a1,1,0,0,1,.45-.54l.38-.46a51.6,51.6,0,0,0,5.72-7.44,22.65,22.65,0,0,1,10.35-9,1.4,1.4,0,0,1,.64-.18v1.73a.63.63,0,0,0,.45-.18l-.18.09a21.35,21.35,0,0,0-9.72,8.35,72.27,72.27,0,0,1-5.9,7.72l-.45.45a1.05,1.05,0,0,1-.2.27Z"></path><polygon class="b" points="1524.72 118.32 1533.89 130.13 1526.26 130.13 1519.89 122.04 1519.89 130.13 1513.55 130.13 1513.55 106.7 1519.92 106.7 1519.92 114.69 1525.64 106.7 1533.27 106.7 1524.72 118.32"></polygon><path class="b" d="M1508.64,111.42l-4.26,3.09a6.47,6.47,0,1,0-.1,7.73l4.27,3.09a11.84,11.84,0,0,1-9.35,4.72,11.71,11.71,0,1,1,9.44-18.61Z"></path><path class="b" d="M1477,118.41a6.45,6.45,0,1,0-6.45,6.45A6.44,6.44,0,0,0,1477,118.41Zm-6.45-11.71a11.72,11.72,0,1,1-11.72,11.71,11.71,11.71,0,0,1,11.72-11.71Z"></path><polygon class="b" points="1453.89 124.77 1453.89 130.13 1437.72 130.13 1437.72 106.7 1444.1 106.7 1444.1 124.77 1453.89 124.77"></polygon><path class="b" d="M1422.47,120.14l-2.09-5.18h-.18l-2.09,5.18Zm.72-13.44,9.36,23.52h-6.27l-2.54-5.36h-7l-2.54,5.36h-6.27l9.35-23.52Z"></path><polygon class="b" points="1404.94 106.7 1404.94 112.06 1398.31 112.06 1398.31 130.13 1391.78 130.13 1391.78 112.06 1385.24 112.06 1385.24 106.7 1404.94 106.7"></polygon><polygon class="b" points="1380.7 124.77 1380.7 130.13 1364.9 130.13 1364.9 106.7 1380.7 106.7 1380.7 112.06 1370.98 112.06 1370.98 115.6 1380.7 115.6 1380.7 121.05 1370.98 121.05 1370.98 124.77 1380.7 124.77"></polygon><polygon class="b" points="1357.54 106.7 1357.54 130.13 1351.17 130.13 1351.17 117.23 1345.81 122.85 1340.36 117.23 1340.36 130.13 1334.12 130.13 1334.12 106.7 1340.38 106.7 1345.83 113.88 1351.18 106.7 1357.54 106.7"></polygon><path class="b" d="M1559.76,39.79h3.18a5.06,5.06,0,0,0,3.09-.64,2.32,2.32,0,0,0,.82-1.81,2.13,2.13,0,0,0-.38-1.27,2.41,2.41,0,0,0-1.09-.8,8.3,8.3,0,0,0-2.62-.28h-3ZM1557.14,49V32.69h5.62a15.11,15.11,0,0,1,4.18.46,4.37,4.37,0,0,1,2.08,1.54,3.8,3.8,0,0,1,.73,2.36,4.51,4.51,0,0,1-1.27,3.09,4.79,4.79,0,0,1-3.37,1.46,9.38,9.38,0,0,1,1.36.81,17.65,17.65,0,0,1,2.36,3.27l2,3.18h-3.18l-1.46-2.54a17.06,17.06,0,0,0-2.72-3.81,3.36,3.36,0,0,0-2.09-.55h-1.54v7Zm6.62-21a12.85,12.85,0,0,0-6.17,1.64,12.07,12.07,0,0,0-4.72,4.63,12.68,12.68,0,0,0-.09,12.63,11.23,11.23,0,0,0,4.63,4.63,12.82,12.82,0,0,0,12.53,0,11.35,11.35,0,0,0,4.63-4.63,12.82,12.82,0,0,0,1.63-6.26A12.64,12.64,0,0,0,1563.76,28Zm0-2.45a15.09,15.09,0,0,1,7.45,2,13.36,13.36,0,0,1,5.62,5.62,15.37,15.37,0,0,1,2,7.63,15.07,15.07,0,0,1-2,7.53,14.62,14.62,0,0,1-5.62,5.63,15,15,0,0,1-7.54,2,15.18,15.18,0,0,1-7.53-2,14.55,14.55,0,0,1-5.62-5.63,14.77,14.77,0,0,1-2-7.53,15.37,15.37,0,0,1,2-7.63,14.46,14.46,0,0,1,5.62-5.62A16.16,16.16,0,0,1,1563.76,25.52Z"></path></g></g></svg>